<svg xmlns="http://www.w3.org/2000/svg" xmlns:xlink="http://www.w3.org/1999/xlink" width="192" zoomAndPan="magnify" viewBox="0 0 144 144.749998" height="193" preserveAspectRatio="xMidYMid meet" version="1.0"><defs><clipPath id="c5a24ed0b2"><path d="M 0.125 0.75 L 143.875 0.75 L 143.875 144.5 L 0.125 144.5 Z M 0.125 0.75 " clip-rule="nonzero"/></clipPath><clipPath id="46032c5a4c"><path d="M 72 0.75 C 32.304688 0.75 0.125 32.929688 0.125 72.625 C 0.125 112.320312 32.304688 144.5 72 144.5 C 111.695312 144.5 143.875 112.320312 143.875 72.625 C 143.875 32.929688 111.695312 0.75 72 0.75 Z M 72 0.75 " clip-rule="nonzero"/></clipPath><clipPath id="e2cf2db24c"><path d="M 0.125 0 L 143.875 0 L 143.875 139.632812 L 0.125 139.632812 Z M 0.125 0 " clip-rule="nonzero"/></clipPath><clipPath id="c2dc385d4b"><path d="M 72 0 C 32.304688 0 0.125 31.257812 0.125 69.816406 C 0.125 108.375 32.304688 139.632812 72 139.632812 C 111.695312 139.632812 143.875 108.375 143.875 69.816406 C 143.875 31.257812 111.695312 0 72 0 Z M 72 0 " clip-rule="nonzero"/></clipPath><linearGradient x1="1.887775" gradientTransform="matrix(0.545445, 0, 0, 0.545445, 0.12329, 0.00000199655)" y1="-1.886225" x2="261.662484" gradientUnits="userSpaceOnUse" y2="257.887484" id="0c4d6dfa40"><stop stop-opacity="1" stop-color="rgb(51.399231%, 30.999756%, 88.999939%)" offset="0"/><stop stop-opacity="1" stop-color="rgb(51.507568%, 31.170654%, 89.024353%)" offset="0.0625"/><stop stop-opacity="1" stop-color="rgb(51.727295%, 31.513977%, 89.073181%)" offset="0.125"/><stop stop-opacity="1" stop-color="rgb(51.945496%, 31.858826%, 89.123535%)" offset="0.1875"/><stop stop-opacity="1" stop-color="rgb(52.163696%, 32.202148%, 89.173889%)" offset="0.25"/><stop stop-opacity="1" stop-color="rgb(52.383423%, 32.545471%, 89.224243%)" offset="0.3125"/><stop stop-opacity="1" stop-color="rgb(52.601624%, 32.888794%, 89.273071%)" offset="0.375"/><stop stop-opacity="1" stop-color="rgb(52.82135%, 33.233643%, 89.323425%)" offset="0.4375"/><stop stop-opacity="1" stop-color="rgb(53.039551%, 33.576965%, 89.373779%)" offset="0.492735"/><stop stop-opacity="1" stop-color="rgb(53.149414%, 33.74939%, 89.399719%)" offset="0.5"/><stop stop-opacity="1" stop-color="rgb(53.257751%, 33.920288%, 89.424133%)" offset="0.507265"/><stop stop-opacity="1" stop-color="rgb(53.367615%, 34.092712%, 89.448547%)" offset="0.5625"/><stop stop-opacity="1" stop-color="rgb(53.477478%, 34.263611%, 89.472961%)" offset="0.625"/><stop stop-opacity="1" stop-color="rgb(53.695679%, 34.608459%, 89.523315%)" offset="0.6875"/><stop stop-opacity="1" stop-color="rgb(53.913879%, 34.951782%, 89.573669%)" offset="0.75"/><stop stop-opacity="1" stop-color="rgb(54.133606%, 35.295105%, 89.624023%)" offset="0.8125"/><stop stop-opacity="1" stop-color="rgb(54.351807%, 35.639954%, 89.674377%)" offset="0.875"/><stop stop-opacity="1" stop-color="rgb(54.570007%, 35.983276%, 89.723206%)" offset="0.9375"/><stop stop-opacity="1" stop-color="rgb(54.789734%, 36.326599%, 89.77356%)" offset="1"/></linearGradient><clipPath id="0ac4d2d53d"><path d="M 16.222656 15.347656 L 127.777344 15.347656 L 127.777344 128.648438 L 16.222656 128.648438 Z M 16.222656 15.347656 " clip-rule="nonzero"/></clipPath><clipPath id="cbfd6b71b7"><path d="M 72 15.347656 C 41.195312 15.347656 16.222656 40.65625 16.222656 71.875 C 16.222656 103.09375 41.195312 128.402344 72 128.402344 C 102.804688 128.402344 127.777344 103.09375 127.777344 71.875 C 127.777344 40.65625 102.804688 15.347656 72 15.347656 Z M 72 15.347656 " clip-rule="nonzero"/></clipPath><clipPath id="0779dc7f55"><path d="M 16.222656 20.589844 L 127.824219 20.589844 L 127.824219 128.402344 L 16.222656 128.402344 Z M 16.222656 20.589844 " clip-rule="nonzero"/></clipPath><clipPath id="9ef0e25a73"><path d="M 72 20.589844 C 41.195312 20.589844 16.222656 44.722656 16.222656 74.496094 C 16.222656 104.269531 41.195312 128.402344 72 128.402344 C 102.804688 128.402344 127.777344 104.269531 127.777344 74.496094 C 127.777344 44.722656 102.804688 20.589844 72 20.589844 Z M 72 20.589844 " clip-rule="nonzero"/></clipPath><clipPath id="239f46b925"><path d="M 42 43.050781 L 102 43.050781 L 102 100.699219 L 42 100.699219 Z M 42 43.050781 " clip-rule="nonzero"/></clipPath></defs><g clip-path="url(#c5a24ed0b2)"><g clip-path="url(#46032c5a4c)"><path fill="#5f37a8" d="M 0.125 0.75 L 143.875 0.75 L 143.875 144.5 L 0.125 144.5 Z M 0.125 0.75 " fill-opacity="1" fill-rule="nonzero"/></g></g><g clip-path="url(#e2cf2db24c)"><g clip-path="url(#c2dc385d4b)"><path fill="url(#0c4d6dfa40)" d="M 0.125 0 L 0.125 139.632812 L 143.875 139.632812 L 143.875 0 Z M 0.125 0 " fill-rule="nonzero"/></g></g><g clip-path="url(#0ac4d2d53d)"><g clip-path="url(#cbfd6b71b7)"><path fill="#d9d9d9" d="M 16.222656 15.347656 L 127.777344 15.347656 L 127.777344 128.214844 L 16.222656 128.214844 Z M 16.222656 15.347656 " fill-opacity="1" fill-rule="nonzero"/></g></g><g clip-path="url(#0779dc7f55)"><g clip-path="url(#9ef0e25a73)"><path fill="#ffffff" d="M 16.222656 20.589844 L 127.824219 20.589844 L 127.824219 128.402344 L 16.222656 128.402344 Z M 16.222656 20.589844 " fill-opacity="1" fill-rule="nonzero"/></g></g><g clip-path="url(#239f46b925)"><path fill="#3b4262" d="M 89.292969 45.066406 C 92.398438 43.144531 95.375 42.726562 97.671875 43.894531 C 102.820312 46.507812 102.074219 56.234375 99.96875 60.449219 C 98.777344 62.832031 96.667969 64.570312 93.695312 65.625 C 92.539062 69.277344 90.921875 72.414062 88.855469 75.007812 C 90.269531 76.1875 91.894531 76.777344 93.738281 76.773438 L 93.824219 76.773438 L 96.726562 73.90625 C 97.457031 73.1875 98.644531 73.1875 99.375 73.90625 C 100.105469 74.628906 100.105469 75.800781 99.375 76.519531 L 99.117188 76.773438 L 99.703125 76.773438 C 100.734375 76.773438 101.574219 77.601562 101.574219 78.621094 C 101.574219 79.640625 100.734375 80.46875 99.703125 80.46875 L 99.117188 80.46875 L 99.375 80.722656 C 100.105469 81.441406 100.105469 82.613281 99.375 83.332031 C 99.007812 83.695312 98.53125 83.875 98.050781 83.875 C 97.570312 83.875 97.09375 83.695312 96.726562 83.332031 L 93.824219 80.46875 L 93.738281 80.46875 C 92.375 80.46875 91.054688 80.234375 89.777344 79.761719 C 88.5 79.289062 87.34375 78.609375 86.3125 77.722656 C 85.914062 78.085938 85.5 78.433594 85.078125 78.761719 C 81.492188 81.570312 77.105469 83.199219 71.980469 83.644531 C 72.644531 85.652344 72.753906 87.683594 72.308594 89.75 L 72.289062 89.835938 L 74.523438 93.351562 C 74.660156 93.566406 74.75 93.796875 74.792969 94.042969 C 74.839844 94.292969 74.835938 94.539062 74.78125 94.785156 C 74.726562 95.03125 74.628906 95.257812 74.488281 95.464844 C 74.347656 95.675781 74.167969 95.847656 73.957031 95.984375 C 73.648438 96.1875 73.3125 96.289062 72.941406 96.289062 C 72.621094 96.289062 72.316406 96.210938 72.035156 96.054688 C 71.753906 95.898438 71.527344 95.6875 71.355469 95.414062 L 71.15625 95.101562 L 71.03125 95.683594 C 70.941406 96.117188 70.722656 96.476562 70.378906 96.757812 C 70.035156 97.039062 69.640625 97.183594 69.195312 97.183594 C 69.058594 97.183594 68.921875 97.167969 68.792969 97.140625 C 68.546875 97.085938 68.320312 96.984375 68.113281 96.839844 C 67.910156 96.695312 67.738281 96.515625 67.605469 96.304688 C 67.46875 96.089844 67.378906 95.859375 67.335938 95.613281 C 67.292969 95.363281 67.296875 95.117188 67.351562 94.871094 L 67.476562 94.292969 L 67.167969 94.492188 C 66.957031 94.628906 66.730469 94.71875 66.484375 94.765625 C 66.238281 94.808594 65.992188 94.804688 65.746094 94.75 C 65.5 94.695312 65.277344 94.597656 65.070312 94.453125 C 64.867188 94.308594 64.699219 94.128906 64.566406 93.917969 C 64.429688 93.707031 64.339844 93.476562 64.296875 93.226562 C 64.25 92.980469 64.257812 92.730469 64.308594 92.484375 C 64.363281 92.238281 64.460938 92.011719 64.601562 91.804688 C 64.746094 91.597656 64.921875 91.425781 65.132812 91.285156 L 68.609375 89.023438 L 68.628906 88.9375 C 69.019531 87.128906 68.789062 85.402344 67.941406 83.753906 C 66.398438 83.710938 64.863281 83.582031 63.332031 83.371094 C 58.828125 82.761719 56.273438 84.75 55.597656 85.371094 C 50.296875 90.265625 49.269531 98.910156 49.257812 99 C 49.234375 99.230469 49.167969 99.449219 49.058594 99.65625 C 48.953125 99.863281 48.8125 100.046875 48.640625 100.203125 C 48.464844 100.355469 48.269531 100.476562 48.050781 100.558594 C 47.835938 100.644531 47.609375 100.6875 47.375 100.6875 C 46.707031 100.6875 46.183594 100.410156 45.808594 99.855469 C 45.726562 99.730469 43.730469 96.746094 42.851562 92.535156 C 41.664062 86.820312 43.082031 81.578125 46.953125 77.371094 C 49.285156 74.847656 52.085938 73.050781 55.351562 71.976562 L 54.960938 72.078125 C 53.933594 71.601562 52.851562 71.359375 51.71875 71.359375 L 51.628906 71.359375 L 48.714844 74.226562 C 48.347656 74.589844 47.90625 74.769531 47.386719 74.769531 C 46.90625 74.769531 46.425781 74.585938 46.058594 74.226562 C 45.882812 74.054688 45.746094 73.855469 45.652344 73.628906 C 45.558594 73.402344 45.507812 73.167969 45.507812 72.921875 C 45.507812 72.675781 45.558594 72.4375 45.652344 72.210938 C 45.746094 71.984375 45.882812 71.785156 46.058594 71.613281 L 46.316406 71.359375 L 45.730469 71.359375 C 44.691406 71.359375 43.851562 70.535156 43.851562 69.515625 C 43.851562 68.492188 44.695312 67.667969 45.730469 67.667969 L 46.316406 67.667969 L 46.058594 67.414062 C 45.882812 67.242188 45.746094 67.042969 45.652344 66.816406 C 45.554688 66.589844 45.507812 66.351562 45.507812 66.105469 C 45.507812 65.859375 45.554688 65.625 45.652344 65.398438 C 45.746094 65.171875 45.882812 64.972656 46.058594 64.800781 C 46.792969 64.078125 47.980469 64.078125 48.714844 64.800781 L 51.628906 67.667969 L 51.71875 67.667969 C 53.292969 67.664062 54.804688 67.972656 56.25 68.59375 C 57.699219 69.21875 58.960938 70.101562 60.042969 71.246094 L 59.832031 71.03125 C 61.550781 70.859375 63.265625 70.890625 64.976562 71.125 C 69.730469 71.765625 73.621094 71.105469 76.621094 69.152344 C 75.777344 68.105469 75.128906 66.945312 74.683594 65.675781 C 74.234375 64.40625 74.011719 63.097656 74.015625 61.753906 L 74.015625 61.664062 L 71.144531 58.699219 C 70.96875 58.519531 70.835938 58.308594 70.742188 58.078125 C 70.648438 57.84375 70.601562 57.601562 70.601562 57.347656 C 70.601562 57.097656 70.648438 56.855469 70.742188 56.621094 C 70.835938 56.386719 70.96875 56.179688 71.144531 55.996094 C 71.316406 55.820312 71.515625 55.679688 71.742188 55.585938 C 71.96875 55.488281 72.207031 55.4375 72.453125 55.4375 C 72.703125 55.4375 72.9375 55.488281 73.164062 55.585938 C 73.394531 55.679688 73.59375 55.820312 73.761719 55.996094 L 74.019531 56.261719 L 74.019531 55.664062 C 74.019531 54.609375 74.847656 53.753906 75.871094 53.753906 C 76.890625 53.753906 77.722656 54.609375 77.722656 55.664062 L 77.722656 56.257812 L 77.976562 55.996094 C 78.148438 55.820312 78.347656 55.679688 78.574219 55.585938 C 78.800781 55.488281 79.039062 55.4375 79.285156 55.4375 C 79.535156 55.4375 79.769531 55.488281 80 55.585938 C 80.226562 55.679688 80.425781 55.820312 80.597656 55.996094 C 81.699219 57.132812 80.902344 58.382812 80.597656 58.699219 L 77.722656 61.664062 L 77.722656 61.753906 C 77.722656 63.558594 78.332031 65.28125 79.425781 66.652344 C 80.78125 65.03125 81.847656 62.992188 82.621094 60.539062 C 82.054688 58.976562 81.179688 55.28125 83.414062 51.089844 C 84.589844 48.890625 86.839844 46.585938 89.296875 45.066406 Z M 89.292969 45.066406 " fill-opacity="1" fill-rule="nonzero"/></g></svg>