<svg xmlns="http://www.w3.org/2000/svg" xmlns:xlink="http://www.w3.org/1999/xlink" width="192" zoomAndPan="magnify" viewBox="0 0 144 144.749998" height="193" preserveAspectRatio="xMidYMid meet" version="1.0"><defs><clipPath id="cfb5ad47a7"><path d="M 0.125 0.75 L 143.875 0.75 L 143.875 144.5 L 0.125 144.5 Z M 0.125 0.75 " clip-rule="nonzero"/></clipPath><clipPath id="4ea6a3d5bf"><path d="M 72 0.75 C 32.304688 0.75 0.125 32.929688 0.125 72.625 C 0.125 112.320312 32.304688 144.5 72 144.5 C 111.695312 144.5 143.875 112.320312 143.875 72.625 C 143.875 32.929688 111.695312 0.75 72 0.75 Z M 72 0.75 " clip-rule="nonzero"/></clipPath><clipPath id="ac71e03da2"><path d="M 0.125 0 L 143.875 0 L 143.875 139.632812 L 0.125 139.632812 Z M 0.125 0 " clip-rule="nonzero"/></clipPath><clipPath id="12b449ec0e"><path d="M 72 0 C 32.304688 0 0.125 31.257812 0.125 69.816406 C 0.125 108.375 32.304688 139.632812 72 139.632812 C 111.695312 139.632812 143.875 108.375 143.875 69.816406 C 143.875 31.257812 111.695312 0 72 0 Z M 72 0 " clip-rule="nonzero"/></clipPath><linearGradient x1="1.887775" gradientTransform="matrix(0.545445, 0, 0, 0.545445, 0.12329, 0.00000199655)" y1="-1.886225" x2="261.662484" gradientUnits="userSpaceOnUse" y2="257.887484" id="bfc6c02e09"><stop stop-opacity="1" stop-color="rgb(28.199768%, 39.599609%, 95.698547%)" offset="0"/><stop stop-opacity="1" stop-color="rgb(28.370667%, 39.746094%, 95.710754%)" offset="0.0625"/><stop stop-opacity="1" stop-color="rgb(28.713989%, 40.039062%, 95.736694%)" offset="0.125"/><stop stop-opacity="1" stop-color="rgb(29.058838%, 40.333557%, 95.761108%)" offset="0.1875"/><stop stop-opacity="1" stop-color="rgb(29.402161%, 40.626526%, 95.787048%)" offset="0.25"/><stop stop-opacity="1" stop-color="rgb(29.745483%, 40.921021%, 95.811462%)" offset="0.3125"/><stop stop-opacity="1" stop-color="rgb(30.088806%, 41.213989%, 95.835876%)" offset="0.375"/><stop stop-opacity="1" stop-color="rgb(30.433655%, 41.508484%, 95.861816%)" offset="0.4375"/><stop stop-opacity="1" stop-color="rgb(30.776978%, 41.801453%, 95.88623%)" offset="0.492735"/><stop stop-opacity="1" stop-color="rgb(30.949402%, 41.949463%, 95.899963%)" offset="0.5"/><stop stop-opacity="1" stop-color="rgb(31.1203%, 42.095947%, 95.91217%)" offset="0.507265"/><stop stop-opacity="1" stop-color="rgb(31.292725%, 42.242432%, 95.924377%)" offset="0.5625"/><stop stop-opacity="1" stop-color="rgb(31.463623%, 42.388916%, 95.936584%)" offset="0.625"/><stop stop-opacity="1" stop-color="rgb(31.808472%, 42.683411%, 95.960999%)" offset="0.6875"/><stop stop-opacity="1" stop-color="rgb(32.151794%, 42.976379%, 95.986938%)" offset="0.75"/><stop stop-opacity="1" stop-color="rgb(32.495117%, 43.270874%, 96.011353%)" offset="0.8125"/><stop stop-opacity="1" stop-color="rgb(32.839966%, 43.563843%, 96.035767%)" offset="0.875"/><stop stop-opacity="1" stop-color="rgb(33.183289%, 43.858337%, 96.061707%)" offset="0.9375"/><stop stop-opacity="1" stop-color="rgb(33.526611%, 44.151306%, 96.086121%)" offset="1"/></linearGradient><clipPath id="3a22ccd2ab"><path d="M 16.222656 15.347656 L 127.777344 15.347656 L 127.777344 128.648438 L 16.222656 128.648438 Z M 16.222656 15.347656 " clip-rule="nonzero"/></clipPath><clipPath id="334713316e"><path d="M 72 15.347656 C 41.195312 15.347656 16.222656 40.65625 16.222656 71.875 C 16.222656 103.09375 41.195312 128.402344 72 128.402344 C 102.804688 128.402344 127.777344 103.09375 127.777344 71.875 C 127.777344 40.65625 102.804688 15.347656 72 15.347656 Z M 72 15.347656 " clip-rule="nonzero"/></clipPath><clipPath id="0a31d4dbab"><path d="M 16.222656 20.589844 L 127.824219 20.589844 L 127.824219 128.402344 L 16.222656 128.402344 Z M 16.222656 20.589844 " clip-rule="nonzero"/></clipPath><clipPath id="1cba89b907"><path d="M 72 20.589844 C 41.195312 20.589844 16.222656 44.722656 16.222656 74.496094 C 16.222656 104.269531 41.195312 128.402344 72 128.402344 C 102.804688 128.402344 127.777344 104.269531 127.777344 74.496094 C 127.777344 44.722656 102.804688 20.589844 72 20.589844 Z M 72 20.589844 " clip-rule="nonzero"/></clipPath><clipPath id="c597c746f8"><path d="M 48.101562 43.050781 L 96 43.050781 L 96 100.699219 L 48.101562 100.699219 Z M 48.101562 43.050781 " clip-rule="nonzero"/></clipPath></defs><g clip-path="url(#cfb5ad47a7)"><g clip-path="url(#4ea6a3d5bf)"><path fill="#2a45c2" d="M 0.125 0.75 L 143.875 0.75 L 143.875 144.5 L 0.125 144.5 Z M 0.125 0.75 " fill-opacity="1" fill-rule="nonzero"/></g></g><g clip-path="url(#ac71e03da2)"><g clip-path="url(#12b449ec0e)"><path fill="url(#bfc6c02e09)" d="M 0.125 0 L 0.125 139.632812 L 143.875 139.632812 L 143.875 0 Z M 0.125 0 " fill-rule="nonzero"/></g></g><g clip-path="url(#3a22ccd2ab)"><g clip-path="url(#334713316e)"><path fill="#d9d9d9" d="M 16.222656 15.347656 L 127.777344 15.347656 L 127.777344 128.214844 L 16.222656 128.214844 Z M 16.222656 15.347656 " fill-opacity="1" fill-rule="nonzero"/></g></g><g clip-path="url(#0a31d4dbab)"><g clip-path="url(#1cba89b907)"><path fill="#ffffff" d="M 16.222656 20.589844 L 127.824219 20.589844 L 127.824219 128.402344 L 16.222656 128.402344 Z M 16.222656 20.589844 " fill-opacity="1" fill-rule="nonzero"/></g></g><g clip-path="url(#c597c746f8)"><path fill="#3b4262" d="M 94.183594 54.644531 C 93.796875 54.492188 93.394531 54.429688 92.980469 54.453125 C 92.421875 54.492188 91.972656 54.714844 91.707031 55.085938 C 90.136719 57.277344 88.851562 61.417969 87.816406 64.746094 C 87.339844 66.285156 86.699219 68.34375 86.238281 69.320312 C 85.757812 66.582031 86.300781 56.554688 86.511719 52.691406 L 86.515625 52.628906 C 86.664062 49.945312 86.683594 49.476562 86.652344 49.269531 C 86.417969 47.796875 85.828125 46.828125 84.890625 46.398438 C 83.949219 45.957031 82.722656 46.152344 81.398438 46.945312 C 80.738281 47.347656 80.554688 48.71875 79.984375 54.933594 L 79.984375 54.960938 C 79.671875 58.378906 78.949219 66.242188 78.0625 67.550781 C 77.0625 65.71875 75.683594 55.308594 75.089844 50.800781 C 74.675781 47.644531 74.429688 45.832031 74.269531 45.285156 C 73.925781 44.140625 72.476562 43.164062 71.046875 43.109375 C 69.851562 43.050781 68.875 43.65625 68.40625 44.707031 C 67.53125 45.675781 67.84375 48.890625 68.808594 56.507812 C 69.269531 60.136719 70.214844 67.621094 69.621094 68.464844 C 68.429688 68.332031 66.382812 63.644531 63.542969 54.519531 C 62.746094 51.960938 62.496094 51.195312 62.253906 50.859375 C 61.769531 49.683594 60.128906 48.78125 58.660156 48.882812 C 58.535156 48.890625 58.410156 48.910156 58.289062 48.929688 C 57.519531 49.082031 55.761719 49.789062 56.136719 53.054688 C 57.175781 57.574219 58.304688 60.894531 59.394531 64.117188 L 59.417969 64.183594 C 60.074219 66.113281 60.691406 67.9375 61.265625 69.960938 C 62.621094 74.742188 62.09375 77.707031 62.089844 77.738281 C 62.042969 78.042969 61.949219 78.230469 61.804688 78.296875 C 61.746094 78.320312 61.683594 78.335938 61.617188 78.339844 C 61.1875 78.367188 60.542969 78.085938 60.210938 77.898438 C 59.453125 76.453125 55.675781 69.566406 52.257812 68.613281 L 52.132812 68.574219 L 52.007812 68.585938 C 50.753906 68.707031 49.832031 69.179688 49.269531 69.992188 C 48.375 71.28125 48.746094 72.921875 48.832031 73.25 L 48.882812 73.367188 C 48.910156 73.417969 51.65625 78.40625 52.082031 80.722656 C 52.445312 82.714844 54.339844 84.871094 55.863281 86.601562 L 55.925781 86.671875 C 56.421875 87.238281 56.851562 87.730469 57.191406 88.183594 C 61.609375 92.777344 68.597656 96.644531 68.652344 96.675781 C 69.527344 97.316406 70.011719 97.9375 70.0625 98.472656 C 70.085938 98.679688 70.035156 98.871094 69.90625 99.039062 L 69.753906 99.195312 L 70.71875 100.132812 L 89.15625 98.839844 L 89.941406 95.246094 C 92.375 85.101562 91.867188 76.453125 91.859375 76.394531 C 91.867188 76.078125 92.546875 73 93.09375 70.511719 L 93.113281 70.449219 C 94.203125 65.492188 95.5625 59.328125 95.824219 56.984375 C 95.9375 55.984375 95.292969 55.0625 94.183594 54.644531 Z M 94.183594 54.644531 " fill-opacity="1" fill-rule="nonzero"/></g></svg>