<svg xmlns="http://www.w3.org/2000/svg" xmlns:xlink="http://www.w3.org/1999/xlink" width="192" zoomAndPan="magnify" viewBox="0 0 144 144.749998" height="193" preserveAspectRatio="xMidYMid meet" version="1.0"><defs><clipPath id="71f3b4b9b6"><path d="M 0.125 0.75 L 143.875 0.75 L 143.875 144.5 L 0.125 144.5 Z M 0.125 0.75 " clip-rule="nonzero"/></clipPath><clipPath id="36e540141e"><path d="M 72 0.75 C 32.304688 0.75 0.125 32.929688 0.125 72.625 C 0.125 112.320312 32.304688 144.5 72 144.5 C 111.695312 144.5 143.875 112.320312 143.875 72.625 C 143.875 32.929688 111.695312 0.75 72 0.75 Z M 72 0.75 " clip-rule="nonzero"/></clipPath><clipPath id="6b6a806d82"><path d="M 0.125 0 L 143.875 0 L 143.875 139.632812 L 0.125 139.632812 Z M 0.125 0 " clip-rule="nonzero"/></clipPath><clipPath id="f030a1f603"><path d="M 72 0 C 32.304688 0 0.125 31.257812 0.125 69.816406 C 0.125 108.375 32.304688 139.632812 72 139.632812 C 111.695312 139.632812 143.875 108.375 143.875 69.816406 C 143.875 31.257812 111.695312 0 72 0 Z M 72 0 " clip-rule="nonzero"/></clipPath><linearGradient x1="1.887775" gradientTransform="matrix(0.545445, 0, 0, 0.545445, 0.12329, 0.00000199655)" y1="-1.886225" x2="261.662484" gradientUnits="userSpaceOnUse" y2="257.887484" id="bdb6359f2e"><stop stop-opacity="1" stop-color="rgb(86.698914%, 25.099182%, 36.499023%)" offset="0"/><stop stop-opacity="1" stop-color="rgb(86.69281%, 24.987793%, 36.405945%)" offset="0.03125"/><stop stop-opacity="1" stop-color="rgb(86.680603%, 24.766541%, 36.221313%)" offset="0.0625"/><stop stop-opacity="1" stop-color="rgb(86.668396%, 24.543762%, 36.038208%)" offset="0.09375"/><stop stop-opacity="1" stop-color="rgb(86.654663%, 24.32251%, 35.853577%)" offset="0.125"/><stop stop-opacity="1" stop-color="rgb(86.642456%, 24.099731%, 35.668945%)" offset="0.15625"/><stop stop-opacity="1" stop-color="rgb(86.630249%, 23.878479%, 35.484314%)" offset="0.1875"/><stop stop-opacity="1" stop-color="rgb(86.618042%, 23.657227%, 35.299683%)" offset="0.21875"/><stop stop-opacity="1" stop-color="rgb(86.605835%, 23.434448%, 35.115051%)" offset="0.25"/><stop stop-opacity="1" stop-color="rgb(86.592102%, 23.213196%, 34.931946%)" offset="0.28125"/><stop stop-opacity="1" stop-color="rgb(86.579895%, 22.990417%, 34.747314%)" offset="0.3125"/><stop stop-opacity="1" stop-color="rgb(86.567688%, 22.769165%, 34.562683%)" offset="0.34375"/><stop stop-opacity="1" stop-color="rgb(86.555481%, 22.547913%, 34.378052%)" offset="0.375"/><stop stop-opacity="1" stop-color="rgb(86.543274%, 22.325134%, 34.19342%)" offset="0.40625"/><stop stop-opacity="1" stop-color="rgb(86.531067%, 22.103882%, 34.008789%)" offset="0.4375"/><stop stop-opacity="1" stop-color="rgb(86.517334%, 21.881104%, 33.825684%)" offset="0.46875"/><stop stop-opacity="1" stop-color="rgb(86.505127%, 21.659851%, 33.641052%)" offset="0.492735"/><stop stop-opacity="1" stop-color="rgb(86.499023%, 21.548462%, 33.5495%)" offset="0.5"/><stop stop-opacity="1" stop-color="rgb(86.49292%, 21.437073%, 33.456421%)" offset="0.507265"/><stop stop-opacity="1" stop-color="rgb(86.486816%, 21.327209%, 33.364868%)" offset="0.53125"/><stop stop-opacity="1" stop-color="rgb(86.480713%, 21.21582%, 33.27179%)" offset="0.5625"/><stop stop-opacity="1" stop-color="rgb(86.468506%, 20.994568%, 33.087158%)" offset="0.59375"/><stop stop-opacity="1" stop-color="rgb(86.454773%, 20.77179%, 32.902527%)" offset="0.625"/><stop stop-opacity="1" stop-color="rgb(86.442566%, 20.550537%, 32.719421%)" offset="0.65625"/><stop stop-opacity="1" stop-color="rgb(86.430359%, 20.327759%, 32.53479%)" offset="0.6875"/><stop stop-opacity="1" stop-color="rgb(86.418152%, 20.106506%, 32.350159%)" offset="0.71875"/><stop stop-opacity="1" stop-color="rgb(86.405945%, 19.885254%, 32.165527%)" offset="0.75"/><stop stop-opacity="1" stop-color="rgb(86.392212%, 19.662476%, 31.980896%)" offset="0.78125"/><stop stop-opacity="1" stop-color="rgb(86.380005%, 19.441223%, 31.796265%)" offset="0.8125"/><stop stop-opacity="1" stop-color="rgb(86.367798%, 19.218445%, 31.613159%)" offset="0.84375"/><stop stop-opacity="1" stop-color="rgb(86.355591%, 18.997192%, 31.428528%)" offset="0.875"/><stop stop-opacity="1" stop-color="rgb(86.343384%, 18.77594%, 31.243896%)" offset="0.90625"/><stop stop-opacity="1" stop-color="rgb(86.329651%, 18.553162%, 31.059265%)" offset="0.9375"/><stop stop-opacity="1" stop-color="rgb(86.317444%, 18.331909%, 30.874634%)" offset="0.96875"/><stop stop-opacity="1" stop-color="rgb(86.305237%, 18.109131%, 30.691528%)" offset="1"/></linearGradient><clipPath id="380f1334c3"><path d="M 16.222656 15.347656 L 127.777344 15.347656 L 127.777344 128.648438 L 16.222656 128.648438 Z M 16.222656 15.347656 " clip-rule="nonzero"/></clipPath><clipPath id="c4fc7a3474"><path d="M 72 15.347656 C 41.195312 15.347656 16.222656 40.65625 16.222656 71.875 C 16.222656 103.09375 41.195312 128.402344 72 128.402344 C 102.804688 128.402344 127.777344 103.09375 127.777344 71.875 C 127.777344 40.65625 102.804688 15.347656 72 15.347656 Z M 72 15.347656 " clip-rule="nonzero"/></clipPath><clipPath id="f207f34cd2"><path d="M 16.222656 20.589844 L 127.824219 20.589844 L 127.824219 128.402344 L 16.222656 128.402344 Z M 16.222656 20.589844 " clip-rule="nonzero"/></clipPath><clipPath id="985c74d835"><path d="M 72 20.589844 C 41.195312 20.589844 16.222656 44.722656 16.222656 74.496094 C 16.222656 104.269531 41.195312 128.402344 72 128.402344 C 102.804688 128.402344 127.777344 104.269531 127.777344 74.496094 C 127.777344 44.722656 102.804688 20.589844 72 20.589844 Z M 72 20.589844 " clip-rule="nonzero"/></clipPath><clipPath id="e77ede84de"><path d="M 43.175781 43.800781 L 100 43.800781 L 100 101 L 43.175781 101 Z M 43.175781 43.800781 " clip-rule="nonzero"/></clipPath></defs><g clip-path="url(#71f3b4b9b6)"><g clip-path="url(#36e540141e)"><path fill="#9d1634" d="M 0.125 0.75 L 143.875 0.75 L 143.875 144.5 L 0.125 144.5 Z M 0.125 0.75 " fill-opacity="1" fill-rule="nonzero"/></g></g><g clip-path="url(#6b6a806d82)"><g clip-path="url(#f030a1f603)"><path fill="url(#bdb6359f2e)" d="M 0.125 0 L 0.125 139.632812 L 143.875 139.632812 L 143.875 0 Z M 0.125 0 " fill-rule="nonzero"/></g></g><g clip-path="url(#380f1334c3)"><g clip-path="url(#c4fc7a3474)"><path fill="#d9d9d9" d="M 16.222656 15.347656 L 127.777344 15.347656 L 127.777344 128.214844 L 16.222656 128.214844 Z M 16.222656 15.347656 " fill-opacity="1" fill-rule="nonzero"/></g></g><g clip-path="url(#f207f34cd2)"><g clip-path="url(#985c74d835)"><path fill="#ffffff" d="M 16.222656 20.589844 L 127.824219 20.589844 L 127.824219 128.402344 L 16.222656 128.402344 Z M 16.222656 20.589844 " fill-opacity="1" fill-rule="nonzero"/></g></g><g clip-path="url(#e77ede84de)"><path fill="#3b4262" d="M 97.292969 58.476562 C 96.523438 48.753906 85.601562 49.746094 85.601562 49.746094 C 80.996094 41.621094 73.792969 47.503906 73.792969 47.503906 C 68.261719 39.542969 61.328125 46.921875 61.328125 46.921875 C 49.367188 45.632812 49.832031 55.410156 49.832031 55.410156 C 49.550781 58.515625 51.515625 68.132812 51.515625 68.132812 C 49.742188 62.589844 45.894531 67.191406 45.894531 67.191406 C 41.164062 74.488281 44.726562 78.484375 44.726562 78.484375 C 51.125 85.988281 64.769531 94.992188 64.769531 94.992188 C 69.707031 97.820312 67.617188 100.34375 67.617188 100.34375 L 97.496094 95.410156 L 98.183594 89.742188 C 102.722656 76.007812 97.292969 58.476562 97.292969 58.476562 Z M 97.292969 58.476562 " fill-opacity="1" fill-rule="nonzero"/></g></svg>