<svg xmlns="http://www.w3.org/2000/svg" xmlns:xlink="http://www.w3.org/1999/xlink" width="192" zoomAndPan="magnify" viewBox="0 0 144 144.749998" height="193" preserveAspectRatio="xMidYMid meet" version="1.0"><defs><clipPath id="05550bcd90"><path d="M 0.125 0.75 L 143.875 0.75 L 143.875 144.5 L 0.125 144.5 Z M 0.125 0.75 " clip-rule="nonzero"/></clipPath><clipPath id="5874e40d8f"><path d="M 72 0.75 C 32.304688 0.75 0.125 32.929688 0.125 72.625 C 0.125 112.320312 32.304688 144.5 72 144.5 C 111.695312 144.5 143.875 112.320312 143.875 72.625 C 143.875 32.929688 111.695312 0.75 72 0.75 Z M 72 0.75 " clip-rule="nonzero"/></clipPath><clipPath id="fddbdc65a5"><path d="M 0.125 0 L 143.875 0 L 143.875 139.632812 L 0.125 139.632812 Z M 0.125 0 " clip-rule="nonzero"/></clipPath><clipPath id="0c0c68e5bc"><path d="M 72 0 C 32.304688 0 0.125 31.257812 0.125 69.816406 C 0.125 108.375 32.304688 139.632812 72 139.632812 C 111.695312 139.632812 143.875 108.375 143.875 69.816406 C 143.875 31.257812 111.695312 0 72 0 Z M 72 0 " clip-rule="nonzero"/></clipPath><linearGradient x1="1.887775" gradientTransform="matrix(0.545445, 0, 0, 0.545445, 0.12329, 0.00000199655)" y1="-1.886225" x2="261.662484" gradientUnits="userSpaceOnUse" y2="257.887484" id="1ac666664e"><stop stop-opacity="1" stop-color="rgb(92.498779%, 66.299438%, 13.299561%)" offset="0"/><stop stop-opacity="1" stop-color="rgb(92.498779%, 66.2323%, 13.17749%)" offset="0.03125"/><stop stop-opacity="1" stop-color="rgb(92.498779%, 66.098022%, 12.93335%)" offset="0.0625"/><stop stop-opacity="1" stop-color="rgb(92.498779%, 65.963745%, 12.689209%)" offset="0.09375"/><stop stop-opacity="1" stop-color="rgb(92.498779%, 65.829468%, 12.446594%)" offset="0.125"/><stop stop-opacity="1" stop-color="rgb(92.498779%, 65.69519%, 12.202454%)" offset="0.15625"/><stop stop-opacity="1" stop-color="rgb(92.498779%, 65.559387%, 11.958313%)" offset="0.1875"/><stop stop-opacity="1" stop-color="rgb(92.498779%, 65.42511%, 11.714172%)" offset="0.21875"/><stop stop-opacity="1" stop-color="rgb(92.498779%, 65.290833%, 11.471558%)" offset="0.25"/><stop stop-opacity="1" stop-color="rgb(92.498779%, 65.156555%, 11.227417%)" offset="0.28125"/><stop stop-opacity="1" stop-color="rgb(92.498779%, 65.022278%, 10.983276%)" offset="0.3125"/><stop stop-opacity="1" stop-color="rgb(92.498779%, 64.888%, 10.739136%)" offset="0.34375"/><stop stop-opacity="1" stop-color="rgb(92.498779%, 64.753723%, 10.496521%)" offset="0.375"/><stop stop-opacity="1" stop-color="rgb(92.498779%, 64.619446%, 10.25238%)" offset="0.40625"/><stop stop-opacity="1" stop-color="rgb(92.498779%, 64.485168%, 10.00824%)" offset="0.4375"/><stop stop-opacity="1" stop-color="rgb(92.498779%, 64.350891%, 9.764099%)" offset="0.46875"/><stop stop-opacity="1" stop-color="rgb(92.498779%, 64.216614%, 9.521484%)" offset="0.492735"/><stop stop-opacity="1" stop-color="rgb(92.498779%, 64.149475%, 9.399414%)" offset="0.5"/><stop stop-opacity="1" stop-color="rgb(92.498779%, 64.082336%, 9.277344%)" offset="0.507265"/><stop stop-opacity="1" stop-color="rgb(92.498779%, 64.015198%, 9.155273%)" offset="0.53125"/><stop stop-opacity="1" stop-color="rgb(92.498779%, 63.948059%, 9.033203%)" offset="0.5625"/><stop stop-opacity="1" stop-color="rgb(92.498779%, 63.813782%, 8.789062%)" offset="0.59375"/><stop stop-opacity="1" stop-color="rgb(92.498779%, 63.679504%, 8.546448%)" offset="0.625"/><stop stop-opacity="1" stop-color="rgb(92.498779%, 63.545227%, 8.302307%)" offset="0.65625"/><stop stop-opacity="1" stop-color="rgb(92.498779%, 63.409424%, 8.058167%)" offset="0.6875"/><stop stop-opacity="1" stop-color="rgb(92.498779%, 63.275146%, 7.814026%)" offset="0.71875"/><stop stop-opacity="1" stop-color="rgb(92.498779%, 63.140869%, 7.571411%)" offset="0.75"/><stop stop-opacity="1" stop-color="rgb(92.498779%, 63.006592%, 7.327271%)" offset="0.78125"/><stop stop-opacity="1" stop-color="rgb(92.498779%, 62.872314%, 7.08313%)" offset="0.8125"/><stop stop-opacity="1" stop-color="rgb(92.498779%, 62.738037%, 6.838989%)" offset="0.84375"/><stop stop-opacity="1" stop-color="rgb(92.498779%, 62.60376%, 6.596375%)" offset="0.875"/><stop stop-opacity="1" stop-color="rgb(92.498779%, 62.469482%, 6.352234%)" offset="0.90625"/><stop stop-opacity="1" stop-color="rgb(92.498779%, 62.335205%, 6.108093%)" offset="0.9375"/><stop stop-opacity="1" stop-color="rgb(92.498779%, 62.200928%, 5.863953%)" offset="0.96875"/><stop stop-opacity="1" stop-color="rgb(92.498779%, 62.06665%, 5.621338%)" offset="1"/></linearGradient><clipPath id="760cc5d6c9"><path d="M 16.222656 15.347656 L 127.777344 15.347656 L 127.777344 128.648438 L 16.222656 128.648438 Z M 16.222656 15.347656 " clip-rule="nonzero"/></clipPath><clipPath id="82ada030c9"><path d="M 72 15.347656 C 41.195312 15.347656 16.222656 40.65625 16.222656 71.875 C 16.222656 103.09375 41.195312 128.402344 72 128.402344 C 102.804688 128.402344 127.777344 103.09375 127.777344 71.875 C 127.777344 40.65625 102.804688 15.347656 72 15.347656 Z M 72 15.347656 " clip-rule="nonzero"/></clipPath><clipPath id="6433602dda"><path d="M 16.222656 20.589844 L 127.824219 20.589844 L 127.824219 128.402344 L 16.222656 128.402344 Z M 16.222656 20.589844 " clip-rule="nonzero"/></clipPath><clipPath id="88ddd5ccd2"><path d="M 72 20.589844 C 41.195312 20.589844 16.222656 44.722656 16.222656 74.496094 C 16.222656 104.269531 41.195312 128.402344 72 128.402344 C 102.804688 128.402344 127.777344 104.269531 127.777344 74.496094 C 127.777344 44.722656 102.804688 20.589844 72 20.589844 Z M 72 20.589844 " clip-rule="nonzero"/></clipPath><clipPath id="3970881a26"><path d="M 46.671875 43.035156 L 97.585938 43.035156 L 97.585938 100 L 46.671875 100 Z M 46.671875 43.035156 " clip-rule="nonzero"/></clipPath></defs><g clip-path="url(#05550bcd90)"><g clip-path="url(#5874e40d8f)"><path fill="#c76c1b" d="M 0.125 0.75 L 143.875 0.75 L 143.875 144.5 L 0.125 144.5 Z M 0.125 0.75 " fill-opacity="1" fill-rule="nonzero"/></g></g><g clip-path="url(#fddbdc65a5)"><g clip-path="url(#0c0c68e5bc)"><path fill="url(#1ac666664e)" d="M 0.125 0 L 0.125 139.632812 L 143.875 139.632812 L 143.875 0 Z M 0.125 0 " fill-rule="nonzero"/></g></g><g clip-path="url(#760cc5d6c9)"><g clip-path="url(#82ada030c9)"><path fill="#d9d9d9" d="M 16.222656 15.347656 L 127.777344 15.347656 L 127.777344 128.214844 L 16.222656 128.214844 Z M 16.222656 15.347656 " fill-opacity="1" fill-rule="nonzero"/></g></g><g clip-path="url(#6433602dda)"><g clip-path="url(#88ddd5ccd2)"><path fill="#ffffff" d="M 16.222656 20.589844 L 127.824219 20.589844 L 127.824219 128.402344 L 16.222656 128.402344 Z M 16.222656 20.589844 " fill-opacity="1" fill-rule="nonzero"/></g></g><g clip-path="url(#3970881a26)"><path fill="#3b4262" d="M 60.621094 68.585938 L 66.621094 60.234375 C 64.125 59.824219 59.546875 59.730469 55.792969 63.445312 C 49.878906 69.300781 47.484375 81.949219 46.984375 85.011719 L 62.015625 99.890625 C 64.722656 99.660156 76.703125 98.078125 88.25 86.648438 C 88.371094 86.402344 91.183594 84.347656 88.886719 82.070312 C 87.785156 80.984375 85.972656 81.003906 84.851562 82.113281 C 84.277344 82.679688 83.390625 82.6875 82.832031 82.132812 C 82.273438 81.582031 82.28125 80.703125 82.851562 80.136719 L 86.933594 76.097656 C 89.003906 74.046875 87.050781 70.585938 84.15625 71.414062 L 80.816406 74.246094 C 80.207031 74.773438 79.300781 74.679688 78.800781 74.105469 C 78.28125 73.515625 78.390625 72.613281 78.980469 72.109375 C 90.648438 61.976562 88.945312 63.195312 96.453125 56.230469 C 99.257812 53.921875 95.726562 49.832031 92.964844 52.171875 L 74.804688 68.335938 C 74.277344 68.78125 73.46875 68.789062 72.949219 68.316406 C 72.347656 67.804688 72.335938 67.0625 72.726562 66.480469 L 85.394531 46.988281 C 87.242188 44.507812 83.601562 41.753906 81.652344 44.253906 L 62.925781 70.179688 C 62.472656 70.824219 61.5625 70.972656 60.941406 70.523438 C 60.789062 70.417969 60.664062 70.285156 60.566406 70.128906 C 60.464844 69.972656 60.402344 69.804688 60.371094 69.621094 C 60.339844 69.441406 60.347656 69.257812 60.390625 69.078125 C 60.433594 68.898438 60.511719 68.734375 60.621094 68.585938 Z M 60.621094 68.585938 " fill-opacity="1" fill-rule="nonzero"/></g></svg>