<svg xmlns="http://www.w3.org/2000/svg" xmlns:xlink="http://www.w3.org/1999/xlink" width="192" zoomAndPan="magnify" viewBox="0 0 144 144.749998" height="193" preserveAspectRatio="xMidYMid meet" version="1.0"><defs><clipPath id="daeb0bbf5e"><path d="M 0.125 0.75 L 143.875 0.75 L 143.875 144.5 L 0.125 144.5 Z M 0.125 0.75 " clip-rule="nonzero"/></clipPath><clipPath id="b919ad6188"><path d="M 72 0.75 C 32.304688 0.75 0.125 32.929688 0.125 72.625 C 0.125 112.320312 32.304688 144.5 72 144.5 C 111.695312 144.5 143.875 112.320312 143.875 72.625 C 143.875 32.929688 111.695312 0.75 72 0.75 Z M 72 0.75 " clip-rule="nonzero"/></clipPath><clipPath id="481c0bf511"><path d="M 0.125 0 L 143.875 0 L 143.875 139.632812 L 0.125 139.632812 Z M 0.125 0 " clip-rule="nonzero"/></clipPath><clipPath id="f259ac711d"><path d="M 72 0 C 32.304688 0 0.125 31.257812 0.125 69.816406 C 0.125 108.375 32.304688 139.632812 72 139.632812 C 111.695312 139.632812 143.875 108.375 143.875 69.816406 C 143.875 31.257812 111.695312 0 72 0 Z M 72 0 " clip-rule="nonzero"/></clipPath><linearGradient x1="1.887775" gradientTransform="matrix(0.545445, 0, 0, 0.545445, 0.12329, 0.00000199655)" y1="-1.886225" x2="261.662484" gradientUnits="userSpaceOnUse" y2="257.887484" id="36bb112196"><stop stop-opacity="1" stop-color="rgb(25.099182%, 72.499084%, 80.799866%)" offset="0"/><stop stop-opacity="1" stop-color="rgb(25.209045%, 72.529602%, 80.818176%)" offset="0.03125"/><stop stop-opacity="1" stop-color="rgb(25.431824%, 72.592163%, 80.854797%)" offset="0.0625"/><stop stop-opacity="1" stop-color="rgb(25.653076%, 72.654724%, 80.892944%)" offset="0.09375"/><stop stop-opacity="1" stop-color="rgb(25.875854%, 72.717285%, 80.929565%)" offset="0.125"/><stop stop-opacity="1" stop-color="rgb(26.097107%, 72.779846%, 80.967712%)" offset="0.15625"/><stop stop-opacity="1" stop-color="rgb(26.318359%, 72.842407%, 81.004333%)" offset="0.1875"/><stop stop-opacity="1" stop-color="rgb(26.541138%, 72.904968%, 81.04248%)" offset="0.21875"/><stop stop-opacity="1" stop-color="rgb(26.76239%, 72.967529%, 81.080627%)" offset="0.25"/><stop stop-opacity="1" stop-color="rgb(26.985168%, 73.03009%, 81.117249%)" offset="0.28125"/><stop stop-opacity="1" stop-color="rgb(27.206421%, 73.092651%, 81.155396%)" offset="0.3125"/><stop stop-opacity="1" stop-color="rgb(27.429199%, 73.155212%, 81.192017%)" offset="0.34375"/><stop stop-opacity="1" stop-color="rgb(27.650452%, 73.217773%, 81.230164%)" offset="0.375"/><stop stop-opacity="1" stop-color="rgb(27.871704%, 73.280334%, 81.268311%)" offset="0.40625"/><stop stop-opacity="1" stop-color="rgb(28.094482%, 73.342896%, 81.304932%)" offset="0.4375"/><stop stop-opacity="1" stop-color="rgb(28.315735%, 73.405457%, 81.343079%)" offset="0.46875"/><stop stop-opacity="1" stop-color="rgb(28.538513%, 73.468018%, 81.3797%)" offset="0.492735"/><stop stop-opacity="1" stop-color="rgb(28.649902%, 73.498535%, 81.399536%)" offset="0.5"/><stop stop-opacity="1" stop-color="rgb(28.759766%, 73.529053%, 81.417847%)" offset="0.507265"/><stop stop-opacity="1" stop-color="rgb(28.871155%, 73.561096%, 81.436157%)" offset="0.53125"/><stop stop-opacity="1" stop-color="rgb(28.981018%, 73.591614%, 81.454468%)" offset="0.5625"/><stop stop-opacity="1" stop-color="rgb(29.203796%, 73.654175%, 81.492615%)" offset="0.59375"/><stop stop-opacity="1" stop-color="rgb(29.425049%, 73.716736%, 81.530762%)" offset="0.625"/><stop stop-opacity="1" stop-color="rgb(29.647827%, 73.779297%, 81.567383%)" offset="0.65625"/><stop stop-opacity="1" stop-color="rgb(29.86908%, 73.841858%, 81.60553%)" offset="0.6875"/><stop stop-opacity="1" stop-color="rgb(30.090332%, 73.904419%, 81.642151%)" offset="0.71875"/><stop stop-opacity="1" stop-color="rgb(30.31311%, 73.96698%, 81.680298%)" offset="0.75"/><stop stop-opacity="1" stop-color="rgb(30.534363%, 74.029541%, 81.716919%)" offset="0.78125"/><stop stop-opacity="1" stop-color="rgb(30.757141%, 74.092102%, 81.755066%)" offset="0.8125"/><stop stop-opacity="1" stop-color="rgb(30.978394%, 74.154663%, 81.793213%)" offset="0.84375"/><stop stop-opacity="1" stop-color="rgb(31.199646%, 74.217224%, 81.829834%)" offset="0.875"/><stop stop-opacity="1" stop-color="rgb(31.422424%, 74.279785%, 81.867981%)" offset="0.90625"/><stop stop-opacity="1" stop-color="rgb(31.643677%, 74.342346%, 81.904602%)" offset="0.9375"/><stop stop-opacity="1" stop-color="rgb(31.866455%, 74.404907%, 81.942749%)" offset="0.96875"/><stop stop-opacity="1" stop-color="rgb(32.087708%, 74.467468%, 81.97937%)" offset="1"/></linearGradient><clipPath id="9910b6bcab"><path d="M 16.222656 15.347656 L 127.777344 15.347656 L 127.777344 128.648438 L 16.222656 128.648438 Z M 16.222656 15.347656 " clip-rule="nonzero"/></clipPath><clipPath id="f7158502d7"><path d="M 72 15.347656 C 41.195312 15.347656 16.222656 40.65625 16.222656 71.875 C 16.222656 103.09375 41.195312 128.402344 72 128.402344 C 102.804688 128.402344 127.777344 103.09375 127.777344 71.875 C 127.777344 40.65625 102.804688 15.347656 72 15.347656 Z M 72 15.347656 " clip-rule="nonzero"/></clipPath><clipPath id="d7b8555479"><path d="M 16.222656 20.589844 L 127.824219 20.589844 L 127.824219 128.402344 L 16.222656 128.402344 Z M 16.222656 20.589844 " clip-rule="nonzero"/></clipPath><clipPath id="55b20f46c3"><path d="M 72 20.589844 C 41.195312 20.589844 16.222656 44.722656 16.222656 74.496094 C 16.222656 104.269531 41.195312 128.402344 72 128.402344 C 102.804688 128.402344 127.777344 104.269531 127.777344 74.496094 C 127.777344 44.722656 102.804688 20.589844 72 20.589844 Z M 72 20.589844 " clip-rule="nonzero"/></clipPath><clipPath id="71b4a35b97"><path d="M 53.035156 42.488281 L 97 42.488281 L 97 100 L 53.035156 100 Z M 53.035156 42.488281 " clip-rule="nonzero"/></clipPath></defs><g clip-path="url(#daeb0bbf5e)"><g clip-path="url(#b919ad6188)"><path fill="#2d8dab" d="M 0.125 0.75 L 143.875 0.75 L 143.875 144.5 L 0.125 144.5 Z M 0.125 0.75 " fill-opacity="1" fill-rule="nonzero"/></g></g><g clip-path="url(#481c0bf511)"><g clip-path="url(#f259ac711d)"><path fill="url(#36bb112196)" d="M 0.125 0 L 0.125 139.632812 L 143.875 139.632812 L 143.875 0 Z M 0.125 0 " fill-rule="nonzero"/></g></g><g clip-path="url(#9910b6bcab)"><g clip-path="url(#f7158502d7)"><path fill="#d9d9d9" d="M 16.222656 15.347656 L 127.777344 15.347656 L 127.777344 128.214844 L 16.222656 128.214844 Z M 16.222656 15.347656 " fill-opacity="1" fill-rule="nonzero"/></g></g><g clip-path="url(#d7b8555479)"><g clip-path="url(#55b20f46c3)"><path fill="#ffffff" d="M 16.222656 20.589844 L 127.824219 20.589844 L 127.824219 128.402344 L 16.222656 128.402344 Z M 16.222656 20.589844 " fill-opacity="1" fill-rule="nonzero"/></g></g><g clip-path="url(#71b4a35b97)"><path fill="#3b4262" d="M 96.269531 74.164062 L 95.421875 73.328125 C 93.398438 71.320312 90.089844 70.886719 87.617188 72.292969 L 82.339844 75.277344 L 83.441406 51.367188 C 83.441406 49.359375 81.792969 47.730469 79.765625 47.730469 C 79.328125 47.730469 78.90625 47.804688 78.515625 47.945312 L 78.648438 46.664062 C 78.648438 44.636719 76.972656 42.988281 74.917969 42.988281 C 73.019531 42.988281 71.425781 44.398438 71.222656 46.207031 L 67.835938 66.457031 C 67.792969 66.730469 67.3125 66.703125 67.261719 66.53125 L 63.261719 50.296875 C 63.152344 49.925781 62.984375 49.582031 62.765625 49.265625 C 62.546875 48.949219 62.28125 48.675781 61.96875 48.445312 C 61.660156 48.214844 61.320312 48.035156 60.953125 47.914062 C 60.585938 47.792969 60.210938 47.730469 59.824219 47.730469 C 58.726562 47.730469 57.703125 48.21875 57.023438 49.070312 C 56.679688 49.492188 56.453125 49.96875 56.332031 50.496094 C 56.214844 51.023438 56.21875 51.550781 56.34375 52.078125 L 57.121094 55.347656 C 56.671875 55.3125 56.238281 55.367188 55.8125 55.511719 C 55.429688 55.636719 55.082031 55.820312 54.765625 56.070312 C 54.449219 56.320312 54.1875 56.613281 53.980469 56.957031 C 53.769531 57.296875 53.628906 57.664062 53.550781 58.054688 C 53.472656 58.449219 53.464844 58.839844 53.527344 59.238281 L 55.882812 72.632812 C 55.882812 77.917969 56.816406 81.828125 57.605469 84.175781 C 58.054688 85.535156 58.28125 86.933594 58.277344 88.363281 C 58.277344 89.617188 58.101562 90.863281 57.753906 92.070312 L 55.929688 98.394531 C 55.824219 98.753906 55.898438 99.136719 56.121094 99.433594 C 56.351562 99.730469 56.703125 99.90625 57.078125 99.90625 L 78.644531 99.90625 C 78.839844 99.90625 79.019531 99.863281 79.191406 99.777344 C 79.363281 99.691406 79.503906 99.570312 79.617188 99.414062 C 79.730469 99.261719 79.800781 99.089844 79.832031 98.898438 C 79.859375 98.710938 79.84375 98.527344 79.785156 98.34375 C 79.773438 98.3125 78.769531 95.25 79.71875 91.085938 C 80.921875 90.121094 85.132812 86.730469 86.644531 85.367188 C 89.144531 83.105469 95.988281 76.125 96.28125 75.828125 C 96.390625 75.71875 96.472656 75.589844 96.53125 75.445312 C 96.589844 75.300781 96.621094 75.152344 96.621094 74.996094 C 96.617188 74.839844 96.585938 74.6875 96.527344 74.546875 C 96.464844 74.402344 96.378906 74.273438 96.269531 74.164062 Z M 96.269531 74.164062 " fill-opacity="1" fill-rule="nonzero"/></g></svg>